<svg width="45" height="46" viewBox="0 0 45 46" fill="none" xmlns="http://www.w3.org/2000/svg">
<g clip-path="url(#clip0_84_402)">
<path fill-rule="evenodd" clip-rule="evenodd" d="M36.5625 18.7812C36.5625 22.8154 35.2529 26.542 33.0469 29.5654L44.1738 40.7012C45.2725 41.7998 45.2725 43.584 44.1738 44.6826C43.0752 45.7812 41.291 45.7812 40.1924 44.6826L29.0654 33.5469C26.042 35.7617 22.3154 37.0625 18.2812 37.0625C8.18262 37.0625 0 28.8799 0 18.7812C0 8.68262 8.18262 0.5 18.2812 0.5C28.3799 0.5 36.5625 8.68262 36.5625 18.7812ZM26.5 12.5C25.1193 12.5 24 13.6193 24 15V21C24 22.3807 25.1193 23.5 26.5 23.5C27.8807 23.5 29 22.3807 29 21V15C29 13.6193 27.8807 12.5 26.5 12.5ZM16 9C16 7.61929 17.1193 6.5 18.5 6.5C19.8807 6.5 21 7.61929 21 9V28C21 29.3807 19.8807 30.5 18.5 30.5C17.1193 30.5 16 29.3807 16 28V9ZM10.5 9.5C9.11929 9.5 8 10.6193 8 12V24C8 25.3807 9.11929 26.5 10.5 26.5C11.8807 26.5 13 25.3807 13 24V12C13 10.6193 11.8807 9.5 10.5 9.5Z" fill="white"/>
</g>
<defs>
<clipPath id="clip0_84_402">
<rect width="45" height="45" fill="white" transform="translate(0 0.5)"/>
</clipPath>
</defs>
</svg>
