<svg width="24" height="24" viewBox="0 0 45 36" fill="none" xmlns="http://www.w3.org/2000/svg">
<g clip-path="url(#clip0_35_161)">
<path d="M44.9844 17.9658C44.9844 19.1963 43.8125 20.1602 42.4844 20.1602H39.9844L40.0391 31.1113C40.0391 31.2959 40.0234 31.4805 40 31.665V32.7656C40 34.2764 38.6016 35.5 36.875 35.5H35.625C35.5391 35.5 35.4531 35.5 35.3672 35.4932C35.2578 35.5 35.1484 35.5 35.0391 35.5H32.5H30.625C28.8984 35.5 27.5 34.2764 27.5 32.7656V31.125V26.75C27.5 25.54 26.3828 24.5625 25 24.5625H20C18.6172 24.5625 17.5 25.54 17.5 26.75V31.125V32.7656C17.5 34.2764 16.1016 35.5 14.375 35.5H12.5H10.0078C9.89063 35.5 9.77344 35.4932 9.65625 35.4863C9.5625 35.4932 9.46875 35.5 9.375 35.5H8.125C6.39844 35.5 5 34.2764 5 32.7656V25.1094C5 25.0479 5 24.9795 5.00781 24.918V20.1602H2.5C1.09375 20.1602 0 19.2031 0 17.9658C0 17.3506 0.234375 16.8037 0.78125 16.3252L20.8125 1.04688C21.3594 0.568359 21.9844 0.5 22.5313 0.5C23.0781 0.5 23.7031 0.636719 24.1719 0.978516L44.125 16.3252C44.75 16.8037 45.0625 17.3506 44.9844 17.9658Z" fill="white"/>
</g>
<defs>
<clipPath id="clip0_35_161">
<rect width="45" height="35" fill="white" transform="translate(0 0.5)"/>
</clipPath>
</defs>
</svg>
