<svg width="45" height="36" viewBox="0 0 45 36" fill="none" xmlns="http://www.w3.org/2000/svg">
<path d="M41.2734 3.26953H30.3516C26.5938 3.26953 23.3281 5.61094 22.5078 8.91563C21.6797 5.61094 18.4219 3.26953 14.6641 3.26953H3.75C1.67969 3.26953 0 4.78125 0 6.64453V23.9273C0 25.7906 1.67969 27.3023 3.75 27.3023H10.7578C18.7422 27.3023 21.125 29.018 22.2656 32.5758C22.3203 32.7727 22.6719 32.7727 22.7344 32.5758C23.8828 29.018 26.2656 27.3023 34.2422 27.3023H41.25C43.3203 27.3023 45 25.7906 45 23.9273V6.65156C45 4.79531 43.3359 3.28359 41.2734 3.26953ZM18.9062 21.9305C18.9062 22.0641 18.7891 22.1766 18.6328 22.1766H6.10937C5.96094 22.1766 5.83594 22.0711 5.83594 21.9305V20.3203C5.83594 20.1867 5.95312 20.0742 6.10937 20.0742H18.6406C18.7891 20.0742 18.9141 20.1797 18.9141 20.3203V21.9305H18.9062ZM18.9062 17.6484C18.9062 17.782 18.7891 17.8945 18.6328 17.8945H6.10937C5.96094 17.8945 5.83594 17.7891 5.83594 17.6484V16.0383C5.83594 15.9047 5.95312 15.7922 6.10937 15.7922H18.6406C18.7891 15.7922 18.9141 15.8977 18.9141 16.0383V17.6484H18.9062ZM18.9062 13.3664C18.9062 13.5 18.7891 13.6125 18.6328 13.6125H6.10937C5.96094 13.6125 5.83594 13.507 5.83594 13.3664V11.7562C5.83594 11.6227 5.95312 11.5102 6.10937 11.5102H18.6406C18.7891 11.5102 18.9141 11.6156 18.9141 11.7562V13.3664H18.9062ZM39.1641 21.9234C39.1641 22.057 39.0469 22.1695 38.8906 22.1695H26.3672C26.2188 22.1695 26.0938 22.0641 26.0938 21.9234V20.3133C26.0938 20.1797 26.2109 20.0672 26.3672 20.0672H38.8984C39.0469 20.0672 39.1719 20.1727 39.1719 20.3133V21.9234H39.1641ZM39.1641 17.6414C39.1641 17.775 39.0469 17.8875 38.8906 17.8875H26.3672C26.2188 17.8875 26.0938 17.782 26.0938 17.6414V16.0312C26.0938 15.8977 26.2109 15.7852 26.3672 15.7852H38.8984C39.0469 15.7852 39.1719 15.8906 39.1719 16.0312V17.6414H39.1641ZM39.1641 13.3594C39.1641 13.493 39.0469 13.6055 38.8906 13.6055H26.3672C26.2188 13.6055 26.0938 13.5 26.0938 13.3594V11.7562C26.0938 11.6227 26.2109 11.5102 26.3672 11.5102H38.8984C39.0469 11.5102 39.1719 11.6156 39.1719 11.7562V13.3594H39.1641Z" fill="white"/>
</svg>
